<svg preserveAspectRatio="xMidYMid meet" xmlns="http://www.w3.org/2000/svg" xmlns:xlink="http://www.w3.org/1999/xlink" version="1.1" baseProfile="full" viewBox="0 0 760 340">
<rect width="760" height="340" x="0" y="0" fill="none"></rect>
<path d="M70.7 280.5L736 280.5" fill="none" pointer-events="visible" stroke="#d9d2c3" stroke-dasharray="4,2" class="zr7-cls-47"></path>
<path d="M70.7 220.5L736 220.5" fill="none" pointer-events="visible" stroke="#d9d2c3" stroke-dasharray="4,2" class="zr7-cls-47"></path>
<path d="M70.7 161.5L736 161.5" fill="none" pointer-events="visible" stroke="#d9d2c3" stroke-dasharray="4,2" class="zr7-cls-47"></path>
<path d="M70.7 101.5L736 101.5" fill="none" pointer-events="visible" stroke="#d9d2c3" stroke-dasharray="4,2" class="zr7-cls-47"></path>
<path d="M70.7 42.5L736 42.5" fill="none" pointer-events="visible" stroke="#d9d2c3" stroke-dasharray="4,2" class="zr7-cls-47"></path>
<text dominant-baseline="central" text-anchor="middle" style="font-size:11px;font-family:Inter, Helvetica Neue, Arial, sans-serif;" xml:space="preserve" y="-13.5" transform="translate(70.72 27)" fill="#7b818d">commits / hour (Apr 19, +03)</text>
<path d="M70.7 280.5L736 280.5" fill="none" pointer-events="visible" stroke="#d9d2c3" stroke-linecap="round" class="zr7-cls-47"></path>
<text dominant-baseline="central" text-anchor="end" style="font-size:12px;font-family:Inter, Helvetica Neue, Arial, sans-serif;" transform="translate(62.72 280)" fill="#7b818d">0</text>
<text dominant-baseline="central" text-anchor="end" style="font-size:12px;font-family:Inter, Helvetica Neue, Arial, sans-serif;" transform="translate(62.72 220.5)" fill="#7b818d">1</text>
<text dominant-baseline="central" text-anchor="end" style="font-size:12px;font-family:Inter, Helvetica Neue, Arial, sans-serif;" transform="translate(62.72 161)" fill="#7b818d">2</text>
<text dominant-baseline="central" text-anchor="end" style="font-size:12px;font-family:Inter, Helvetica Neue, Arial, sans-serif;" transform="translate(62.72 101.5)" fill="#7b818d">3</text>
<text dominant-baseline="central" text-anchor="end" style="font-size:12px;font-family:Inter, Helvetica Neue, Arial, sans-serif;" transform="translate(62.72 42)" fill="#7b818d">4</text>
<text dominant-baseline="central" text-anchor="middle" style="font-size:10px;font-family:Inter, Helvetica Neue, Arial, sans-serif;" y="5" transform="translate(84.58 288)" fill="#4d525c">00</text>
<text dominant-baseline="central" text-anchor="middle" style="font-size:10px;font-family:Inter, Helvetica Neue, Arial, sans-serif;" y="5" transform="translate(140.02 288)" fill="#4d525c">02</text>
<text dominant-baseline="central" text-anchor="middle" style="font-size:10px;font-family:Inter, Helvetica Neue, Arial, sans-serif;" y="5" transform="translate(195.46 288)" fill="#4d525c">04</text>
<text dominant-baseline="central" text-anchor="middle" style="font-size:10px;font-family:Inter, Helvetica Neue, Arial, sans-serif;" y="5" transform="translate(250.9 288)" fill="#4d525c">06</text>
<text dominant-baseline="central" text-anchor="middle" style="font-size:10px;font-family:Inter, Helvetica Neue, Arial, sans-serif;" y="5" transform="translate(306.34 288)" fill="#4d525c">08</text>
<text dominant-baseline="central" text-anchor="middle" style="font-size:10px;font-family:Inter, Helvetica Neue, Arial, sans-serif;" y="5" transform="translate(361.78 288)" fill="#4d525c">10</text>
<text dominant-baseline="central" text-anchor="middle" style="font-size:10px;font-family:Inter, Helvetica Neue, Arial, sans-serif;" y="5" transform="translate(417.22 288)" fill="#4d525c">12</text>
<text dominant-baseline="central" text-anchor="middle" style="font-size:10px;font-family:Inter, Helvetica Neue, Arial, sans-serif;" y="5" transform="translate(472.66 288)" fill="#4d525c">14</text>
<text dominant-baseline="central" text-anchor="middle" style="font-size:10px;font-family:Inter, Helvetica Neue, Arial, sans-serif;" y="5" transform="translate(528.1 288)" fill="#4d525c">16</text>
<text dominant-baseline="central" text-anchor="middle" style="font-size:10px;font-family:Inter, Helvetica Neue, Arial, sans-serif;" y="5" transform="translate(583.54 288)" fill="#4d525c">18</text>
<text dominant-baseline="central" text-anchor="middle" style="font-size:10px;font-family:Inter, Helvetica Neue, Arial, sans-serif;" y="5" transform="translate(638.98 288)" fill="#4d525c">20</text>
<text dominant-baseline="central" text-anchor="middle" style="font-size:10px;font-family:Inter, Helvetica Neue, Arial, sans-serif;" y="5" transform="translate(694.42 288)" fill="#4d525c">22</text>
<path d="M79.6 161L89.6 161A3 3 0 0 1 92.6 164L92.6 280L76.6 280L76.6 164A3 3 0 0 1 79.6 161" fill="#4d525c" ecmeta_series_index="0" ecmeta_data_index="0" ecmeta_ssr_type="chart" class="zr7-cls-48"></path>
<path d="M107.3 42L117.3 42A3 3 0 0 1 120.3 45L120.3 280L104.3 280L104.3 45A3 3 0 0 1 107.3 42" fill="#e8c9a8" ecmeta_series_index="0" ecmeta_data_index="1" ecmeta_ssr_type="chart" class="zr7-cls-49"></path>
<path d="M135 161L145 161A3 3 0 0 1 148 164L148 280L132 280L132 164A3 3 0 0 1 135 161" fill="#4d525c" ecmeta_series_index="0" ecmeta_data_index="2" ecmeta_ssr_type="chart" class="zr7-cls-48"></path>
<path d="M162.7 101.5L172.7 101.5A3 3 0 0 1 175.7 104.5L175.7 280L159.7 280L159.7 104.5A3 3 0 0 1 162.7 101.5" fill="#4d525c" ecmeta_series_index="0" ecmeta_data_index="3" ecmeta_ssr_type="chart" class="zr7-cls-48"></path>
<path d="M187.5 280L203.5 280L187.5 280" fill="#7b818d" ecmeta_series_index="0" ecmeta_data_index="4" ecmeta_ssr_type="chart" class="zr7-cls-50"></path>
<path d="M218.2 101.5L228.2 101.5A3 3 0 0 1 231.2 104.5L231.2 280L215.2 280L215.2 104.5A3 3 0 0 1 218.2 101.5" fill="#4d525c" ecmeta_series_index="0" ecmeta_data_index="5" ecmeta_ssr_type="chart" class="zr7-cls-48"></path>
<path d="M245.9 220.5L255.9 220.5A3 3 0 0 1 258.9 223.5L258.9 280L242.9 280L242.9 223.5A3 3 0 0 1 245.9 220.5" fill="#4d525c" ecmeta_series_index="0" ecmeta_data_index="6" ecmeta_ssr_type="chart" class="zr7-cls-48"></path>
<path d="M270.6 280L286.6 280L270.6 280" fill="#7b818d" ecmeta_series_index="0" ecmeta_data_index="7" ecmeta_ssr_type="chart" class="zr7-cls-50"></path>
<path d="M298.3 280L314.3 280L298.3 280" fill="#7b818d" ecmeta_series_index="0" ecmeta_data_index="8" ecmeta_ssr_type="chart" class="zr7-cls-50"></path>
<path d="M326.1 280L342.1 280L326.1 280" fill="#7b818d" ecmeta_series_index="0" ecmeta_data_index="9" ecmeta_ssr_type="chart" class="zr7-cls-50"></path>
<path d="M353.8 280L369.8 280L353.8 280" fill="#7b818d" ecmeta_series_index="0" ecmeta_data_index="10" ecmeta_ssr_type="chart" class="zr7-cls-50"></path>
<path d="M381.5 280L397.5 280L381.5 280" fill="#7b818d" ecmeta_series_index="0" ecmeta_data_index="11" ecmeta_ssr_type="chart" class="zr7-cls-50"></path>
<path d="M409.2 280L425.2 280L409.2 280" fill="#7b818d" ecmeta_series_index="0" ecmeta_data_index="12" ecmeta_ssr_type="chart" class="zr7-cls-50"></path>
<path d="M439.9 220.5L449.9 220.5A3 3 0 0 1 452.9 223.5L452.9 280L436.9 280L436.9 223.5A3 3 0 0 1 439.9 220.5" fill="#9a2f2a" ecmeta_series_index="0" ecmeta_data_index="13" ecmeta_ssr_type="chart" class="zr7-cls-51"></path>
<path d="M464.7 280L480.7 280L464.7 280" fill="#7b818d" ecmeta_series_index="0" ecmeta_data_index="14" ecmeta_ssr_type="chart" class="zr7-cls-50"></path>
<path d="M495.4 101.5L505.4 101.5A3 3 0 0 1 508.4 104.5L508.4 280L492.4 280L492.4 104.5A3 3 0 0 1 495.4 101.5" fill="#a4451b" ecmeta_series_index="0" ecmeta_data_index="15" ecmeta_ssr_type="chart" class="zr7-cls-52"></path>
<path d="M520.1 280L536.1 280L520.1 280" fill="#7b818d" ecmeta_series_index="0" ecmeta_data_index="16" ecmeta_ssr_type="chart" class="zr7-cls-50"></path>
<path d="M547.8 280L563.8 280L547.8 280" fill="#7b818d" ecmeta_series_index="0" ecmeta_data_index="17" ecmeta_ssr_type="chart" class="zr7-cls-50"></path>
<path d="M575.5 280L591.5 280L575.5 280" fill="#7b818d" ecmeta_series_index="0" ecmeta_data_index="18" ecmeta_ssr_type="chart" class="zr7-cls-50"></path>
<path d="M606.3 161L616.3 161A3 3 0 0 1 619.3 164L619.3 280L603.3 280L603.3 164A3 3 0 0 1 606.3 161" fill="#a4451b" ecmeta_series_index="0" ecmeta_data_index="19" ecmeta_ssr_type="chart" class="zr7-cls-52"></path>
<path d="M634 42L644 42A3 3 0 0 1 647 45L647 280L631 280L631 45A3 3 0 0 1 634 42" fill="#a4451b" ecmeta_series_index="0" ecmeta_data_index="20" ecmeta_ssr_type="chart" class="zr7-cls-52"></path>
<path d="M661.7 220.5L671.7 220.5A3 3 0 0 1 674.7 223.5L674.7 280L658.7 280L658.7 223.5A3 3 0 0 1 661.7 220.5" fill="#3d6b4f" ecmeta_series_index="0" ecmeta_data_index="21" ecmeta_ssr_type="chart" class="zr7-cls-53"></path>
<path d="M689.4 42L699.4 42A3 3 0 0 1 702.4 45L702.4 280L686.4 280L686.4 45A3 3 0 0 1 689.4 42" fill="#b96b3f" ecmeta_series_index="0" ecmeta_data_index="22" ecmeta_ssr_type="chart" class="zr7-cls-54"></path>
<path d="M717.1 101.5L727.1 101.5A3 3 0 0 1 730.1 104.5L730.1 280L714.1 280L714.1 104.5A3 3 0 0 1 717.1 101.5" fill="#b96b3f" ecmeta_series_index="0" ecmeta_data_index="23" ecmeta_ssr_type="chart" class="zr7-cls-54"></path>
<text dominant-baseline="central" text-anchor="middle" style="font-size:10px;font-family:Inter, Helvetica Neue, Arial, sans-serif;" y="-5" transform="translate(84.58 156)" fill="#4d525c">2</text>
<text dominant-baseline="central" text-anchor="middle" style="font-size:10px;font-family:Inter, Helvetica Neue, Arial, sans-serif;" y="-5" transform="translate(112.3 37)" fill="#4d525c">4</text>
<text dominant-baseline="central" text-anchor="middle" style="font-size:10px;font-family:Inter, Helvetica Neue, Arial, sans-serif;" y="-5" transform="translate(140.02 156)" fill="#4d525c">2</text>
<text dominant-baseline="central" text-anchor="middle" style="font-size:10px;font-family:Inter, Helvetica Neue, Arial, sans-serif;" y="-5" transform="translate(167.74 96.5)" fill="#4d525c">3</text>
<text dominant-baseline="central" text-anchor="middle" style="font-size:10px;font-family:Inter, Helvetica Neue, Arial, sans-serif;" y="-5" transform="translate(223.18 96.5)" fill="#4d525c">3</text>
<text dominant-baseline="central" text-anchor="middle" style="font-size:10px;font-family:Inter, Helvetica Neue, Arial, sans-serif;" y="-5" transform="translate(250.9 215.5)" fill="#4d525c">1</text>
<text dominant-baseline="central" text-anchor="middle" style="font-size:10px;font-family:Inter, Helvetica Neue, Arial, sans-serif;" y="-5" transform="translate(444.94 215.5)" fill="#4d525c">1</text>
<text dominant-baseline="central" text-anchor="middle" style="font-size:10px;font-family:Inter, Helvetica Neue, Arial, sans-serif;" y="-5" transform="translate(500.38 96.5)" fill="#4d525c">3</text>
<text dominant-baseline="central" text-anchor="middle" style="font-size:10px;font-family:Inter, Helvetica Neue, Arial, sans-serif;" y="-5" transform="translate(611.26 156)" fill="#4d525c">2</text>
<text dominant-baseline="central" text-anchor="middle" style="font-size:10px;font-family:Inter, Helvetica Neue, Arial, sans-serif;" y="-5" transform="translate(638.98 37)" fill="#4d525c">4</text>
<text dominant-baseline="central" text-anchor="middle" style="font-size:10px;font-family:Inter, Helvetica Neue, Arial, sans-serif;" y="-5" transform="translate(666.7 215.5)" fill="#4d525c">1</text>
<text dominant-baseline="central" text-anchor="middle" style="font-size:10px;font-family:Inter, Helvetica Neue, Arial, sans-serif;" y="-5" transform="translate(694.42 37)" fill="#4d525c">4</text>
<text dominant-baseline="central" text-anchor="middle" style="font-size:10px;font-family:Inter, Helvetica Neue, Arial, sans-serif;" y="-5" transform="translate(722.14 96.5)" fill="#4d525c">3</text>
<path d="M-0.54 -0.89A0.6 0.6 0 1 1 0.54 -0.89C0.39 -0.56 0 -0.42 0 0C0 -0.42 -0.39 -0.56 -0.54 -0.89Z" transform="matrix(23,0,0,23,444.94,220.5)" fill="#9a2f2a" ecmeta_series_index="0" ecmeta_data_index="0" ecmeta_ssr_type="chart" class="zr7-cls-51"></path>
<text dominant-baseline="central" text-anchor="middle" style="font-size:10px;font-family:Inter, Helvetica Neue, Arial, sans-serif;font-weight:700;" y="-5" transform="translate(444.94 196.4486)" fill="#fbf8f1">RFC-0006</text>
<text dominant-baseline="central" text-anchor="middle" style="font-size:10px;font-family:Inter, Helvetica Neue, Arial, sans-serif;font-weight:700;" y="5" transform="translate(444.94 196.4486)" fill="#fbf8f1">13:24</text>
<style ><![CDATA[
.zr7-cls-47:hover {
pointer-events:none;
}
.zr7-cls-48:hover {
cursor:pointer;
fill:rgba(84,90,101,1);
}
.zr7-cls-49:hover {
cursor:pointer;
fill:rgba(255,221,184,1);
}
.zr7-cls-50:hover {
cursor:pointer;
fill:rgba(135,141,155,1);
}
.zr7-cls-51:hover {
cursor:pointer;
fill:rgba(169,51,46,1);
}
.zr7-cls-52:hover {
cursor:pointer;
fill:rgba(180,75,29,1);
}
.zr7-cls-53:hover {
cursor:pointer;
fill:rgba(67,117,86,1);
}
.zr7-cls-54:hover {
cursor:pointer;
fill:rgba(203,117,69,1);
}

]]>

</style>
</svg>