<svg preserveAspectRatio="xMidYMid meet" xmlns="http://www.w3.org/2000/svg" xmlns:xlink="http://www.w3.org/1999/xlink" version="1.1" baseProfile="full" viewBox="0 0 760 340">
<rect width="760" height="340" x="0" y="0" fill="none"></rect>
<path d="M77.4 280.5L736 280.5" fill="none" pointer-events="visible" stroke="#d9d2c3" stroke-dasharray="4,2" class="zr4-cls-26"></path>
<path d="M77.4 239.5L736 239.5" fill="none" pointer-events="visible" stroke="#d9d2c3" stroke-dasharray="4,2" class="zr4-cls-26"></path>
<path d="M77.4 199.5L736 199.5" fill="none" pointer-events="visible" stroke="#d9d2c3" stroke-dasharray="4,2" class="zr4-cls-26"></path>
<path d="M77.4 159.5L736 159.5" fill="none" pointer-events="visible" stroke="#d9d2c3" stroke-dasharray="4,2" class="zr4-cls-26"></path>
<path d="M77.4 118.5L736 118.5" fill="none" pointer-events="visible" stroke="#d9d2c3" stroke-dasharray="4,2" class="zr4-cls-26"></path>
<path d="M77.4 78.5L736 78.5" fill="none" pointer-events="visible" stroke="#d9d2c3" stroke-dasharray="4,2" class="zr4-cls-26"></path>
<path d="M77.4 38.5L736 38.5" fill="none" pointer-events="visible" stroke="#d9d2c3" stroke-dasharray="4,2" class="zr4-cls-26"></path>
<path d="M77.4 280.5L736 280.5" fill="none" pointer-events="visible" stroke="#d9d2c3" stroke-linecap="round" class="zr4-cls-26"></path>
<text dominant-baseline="central" text-anchor="end" style="font-size:12px;font-family:Inter, Helvetica Neue, Arial, sans-serif;" transform="translate(69.44 280)" fill="#7b818d">0</text>
<text dominant-baseline="central" text-anchor="end" style="font-size:12px;font-family:Inter, Helvetica Neue, Arial, sans-serif;" transform="translate(69.44 239.6667)" fill="#7b818d">10</text>
<text dominant-baseline="central" text-anchor="end" style="font-size:12px;font-family:Inter, Helvetica Neue, Arial, sans-serif;" transform="translate(69.44 199.3333)" fill="#7b818d">20</text>
<text dominant-baseline="central" text-anchor="end" style="font-size:12px;font-family:Inter, Helvetica Neue, Arial, sans-serif;" transform="translate(69.44 159)" fill="#7b818d">30</text>
<text dominant-baseline="central" text-anchor="end" style="font-size:12px;font-family:Inter, Helvetica Neue, Arial, sans-serif;" transform="translate(69.44 118.6667)" fill="#7b818d">40</text>
<text dominant-baseline="central" text-anchor="end" style="font-size:12px;font-family:Inter, Helvetica Neue, Arial, sans-serif;" transform="translate(69.44 78.3333)" fill="#7b818d">50</text>
<text dominant-baseline="central" text-anchor="end" style="font-size:12px;font-family:Inter, Helvetica Neue, Arial, sans-serif;" transform="translate(69.44 38)" fill="#7b818d">60</text>
<text dominant-baseline="central" text-anchor="middle" style="font-size:10px;font-family:Inter, Helvetica Neue, Arial, sans-serif;" xml:space="preserve" y="5" transform="translate(114.0267 288)" fill="#4d525c">Apr 7</text>
<text dominant-baseline="central" text-anchor="middle" style="font-size:10px;font-family:Inter, Helvetica Neue, Arial, sans-serif;" xml:space="preserve" y="5" transform="translate(187.2 288)" fill="#4d525c">Apr 12</text>
<text dominant-baseline="central" text-anchor="middle" style="font-size:10px;font-family:Inter, Helvetica Neue, Arial, sans-serif;" xml:space="preserve" y="5" transform="translate(260.3733 288)" fill="#4d525c">Apr 15</text>
<text dominant-baseline="central" text-anchor="middle" style="font-size:10px;font-family:Inter, Helvetica Neue, Arial, sans-serif;" xml:space="preserve" y="5" transform="translate(333.5467 288)" fill="#4d525c">Apr 16</text>
<text dominant-baseline="central" text-anchor="middle" style="font-size:10px;font-family:Inter, Helvetica Neue, Arial, sans-serif;" xml:space="preserve" y="5" transform="translate(406.72 288)" fill="#4d525c">Apr 18</text>
<text dominant-baseline="central" text-anchor="middle" style="font-size:10px;font-family:Inter, Helvetica Neue, Arial, sans-serif;" xml:space="preserve" y="5" transform="translate(479.8933 288)" fill="#4d525c">Apr 19</text>
<text dominant-baseline="central" text-anchor="middle" style="font-size:10px;font-family:Inter, Helvetica Neue, Arial, sans-serif;" xml:space="preserve" y="5" transform="translate(553.0667 288)" fill="#4d525c">Apr 20</text>
<text dominant-baseline="central" text-anchor="middle" style="font-size:10px;font-family:Inter, Helvetica Neue, Arial, sans-serif;" xml:space="preserve" y="5" transform="translate(626.24 288)" fill="#4d525c">Apr 21</text>
<text dominant-baseline="central" text-anchor="middle" style="font-size:10px;font-family:Inter, Helvetica Neue, Arial, sans-serif;" xml:space="preserve" y="5" transform="translate(699.4133 288)" fill="#4d525c">Apr 22</text>
<path d="M103 280l22 0l0 -4l-22 0Z" fill="#a4451b" ecmeta_series_index="0" ecmeta_data_index="0" ecmeta_ssr_type="chart" class="zr4-cls-27"></path>
<path d="M176.2 280l22 0l0 -4l-22 0Z" fill="#a4451b" ecmeta_series_index="0" ecmeta_data_index="1" ecmeta_ssr_type="chart" class="zr4-cls-27"></path>
<path d="M249.4 280l22 0l0 0l-22 0Z" fill="#a4451b" ecmeta_series_index="0" ecmeta_data_index="2" ecmeta_ssr_type="chart" class="zr4-cls-27"></path>
<path d="M322.5 280l22 0l0 0l-22 0Z" fill="#a4451b" ecmeta_series_index="0" ecmeta_data_index="3" ecmeta_ssr_type="chart" class="zr4-cls-27"></path>
<path d="M395.7 280l22 0l0 -4l-22 0Z" fill="#a4451b" ecmeta_series_index="0" ecmeta_data_index="4" ecmeta_ssr_type="chart" class="zr4-cls-27"></path>
<path d="M468.9 280l22 0l0 -56.5l-22 0Z" fill="#a4451b" ecmeta_series_index="0" ecmeta_data_index="5" ecmeta_ssr_type="chart" class="zr4-cls-27"></path>
<path d="M542.1 280l22 0l0 -92.8l-22 0Z" fill="#a4451b" ecmeta_series_index="0" ecmeta_data_index="6" ecmeta_ssr_type="chart" class="zr4-cls-27"></path>
<path d="M615.2 280l22 0l0 -80.7l-22 0Z" fill="#a4451b" ecmeta_series_index="0" ecmeta_data_index="7" ecmeta_ssr_type="chart" class="zr4-cls-27"></path>
<path d="M688.4 280l22 0l0 -8.1l-22 0Z" fill="#a4451b" ecmeta_series_index="0" ecmeta_data_index="8" ecmeta_ssr_type="chart" class="zr4-cls-27"></path>
<path d="M103 276l22 0l0 0l-22 0Z" fill="#3d6b4f" ecmeta_series_index="1" ecmeta_data_index="0" ecmeta_ssr_type="chart" class="zr4-cls-28"></path>
<path d="M176.2 276l22 0l0 0l-22 0Z" fill="#3d6b4f" ecmeta_series_index="1" ecmeta_data_index="1" ecmeta_ssr_type="chart" class="zr4-cls-28"></path>
<path d="M249.4 280l22 0l0 0l-22 0Z" fill="#3d6b4f" ecmeta_series_index="1" ecmeta_data_index="2" ecmeta_ssr_type="chart" class="zr4-cls-28"></path>
<path d="M322.5 280l22 0l0 0l-22 0Z" fill="#3d6b4f" ecmeta_series_index="1" ecmeta_data_index="3" ecmeta_ssr_type="chart" class="zr4-cls-28"></path>
<path d="M395.7 276l22 0l0 0l-22 0Z" fill="#3d6b4f" ecmeta_series_index="1" ecmeta_data_index="4" ecmeta_ssr_type="chart" class="zr4-cls-28"></path>
<path d="M468.9 223.5l22 0l0 -32.3l-22 0Z" fill="#3d6b4f" ecmeta_series_index="1" ecmeta_data_index="5" ecmeta_ssr_type="chart" class="zr4-cls-28"></path>
<path d="M542.1 187.2l22 0l0 -60.5l-22 0Z" fill="#3d6b4f" ecmeta_series_index="1" ecmeta_data_index="6" ecmeta_ssr_type="chart" class="zr4-cls-28"></path>
<path d="M615.2 199.3l22 0l0 -68.6l-22 0Z" fill="#3d6b4f" ecmeta_series_index="1" ecmeta_data_index="7" ecmeta_ssr_type="chart" class="zr4-cls-28"></path>
<path d="M688.4 271.9l22 0l0 -24.2l-22 0Z" fill="#3d6b4f" ecmeta_series_index="1" ecmeta_data_index="8" ecmeta_ssr_type="chart" class="zr4-cls-28"></path>
<path d="M103 276l22 0l0 0l-22 0Z" fill="#b96b3f" ecmeta_series_index="2" ecmeta_data_index="0" ecmeta_ssr_type="chart" class="zr4-cls-29"></path>
<path d="M176.2 276l22 0l0 0l-22 0Z" fill="#b96b3f" ecmeta_series_index="2" ecmeta_data_index="1" ecmeta_ssr_type="chart" class="zr4-cls-29"></path>
<path d="M249.4 280l22 0l0 0l-22 0Z" fill="#b96b3f" ecmeta_series_index="2" ecmeta_data_index="2" ecmeta_ssr_type="chart" class="zr4-cls-29"></path>
<path d="M322.5 280l22 0l0 -8.1l-22 0Z" fill="#b96b3f" ecmeta_series_index="2" ecmeta_data_index="3" ecmeta_ssr_type="chart" class="zr4-cls-29"></path>
<path d="M395.7 276l22 0l0 0l-22 0Z" fill="#b96b3f" ecmeta_series_index="2" ecmeta_data_index="4" ecmeta_ssr_type="chart" class="zr4-cls-29"></path>
<path d="M468.9 191.3l22 0l0 -4l-22 0Z" fill="#b96b3f" ecmeta_series_index="2" ecmeta_data_index="5" ecmeta_ssr_type="chart" class="zr4-cls-29"></path>
<path d="M542.1 126.7l22 0l0 -8.1l-22 0Z" fill="#b96b3f" ecmeta_series_index="2" ecmeta_data_index="6" ecmeta_ssr_type="chart" class="zr4-cls-29"></path>
<path d="M615.2 130.8l22 0l0 -24.2l-22 0Z" fill="#b96b3f" ecmeta_series_index="2" ecmeta_data_index="7" ecmeta_ssr_type="chart" class="zr4-cls-29"></path>
<path d="M688.4 247.7l22 0l0 -8.1l-22 0Z" fill="#b96b3f" ecmeta_series_index="2" ecmeta_data_index="8" ecmeta_ssr_type="chart" class="zr4-cls-29"></path>
<path d="M103 276l22 0l0 0l-22 0Z" fill="#4d525c" ecmeta_series_index="3" ecmeta_data_index="0" ecmeta_ssr_type="chart" class="zr4-cls-30"></path>
<path d="M176.2 276l22 0l0 -8.1l-22 0Z" fill="#4d525c" ecmeta_series_index="3" ecmeta_data_index="1" ecmeta_ssr_type="chart" class="zr4-cls-30"></path>
<path d="M249.4 280l22 0l0 -4l-22 0Z" fill="#4d525c" ecmeta_series_index="3" ecmeta_data_index="2" ecmeta_ssr_type="chart" class="zr4-cls-30"></path>
<path d="M322.5 271.9l22 0l0 -4l-22 0Z" fill="#4d525c" ecmeta_series_index="3" ecmeta_data_index="3" ecmeta_ssr_type="chart" class="zr4-cls-30"></path>
<path d="M395.7 276l22 0l0 0l-22 0Z" fill="#4d525c" ecmeta_series_index="3" ecmeta_data_index="4" ecmeta_ssr_type="chart" class="zr4-cls-30"></path>
<path d="M468.9 187.2l22 0l0 -20.2l-22 0Z" fill="#4d525c" ecmeta_series_index="3" ecmeta_data_index="5" ecmeta_ssr_type="chart" class="zr4-cls-30"></path>
<path d="M542.1 118.7l22 0l0 -4l-22 0Z" fill="#4d525c" ecmeta_series_index="3" ecmeta_data_index="6" ecmeta_ssr_type="chart" class="zr4-cls-30"></path>
<path d="M615.2 106.6l22 0l0 -4l-22 0Z" fill="#4d525c" ecmeta_series_index="3" ecmeta_data_index="7" ecmeta_ssr_type="chart" class="zr4-cls-30"></path>
<path d="M688.4 239.7l22 0l0 0l-22 0Z" fill="#4d525c" ecmeta_series_index="3" ecmeta_data_index="8" ecmeta_ssr_type="chart" class="zr4-cls-30"></path>
<path d="M103 276l22 0l0 -56.5l-22 0Z" fill="#7b818d" ecmeta_series_index="4" ecmeta_data_index="0" ecmeta_ssr_type="chart" class="zr4-cls-31"></path>
<path d="M176.2 267.9l22 0l0 -4l-22 0Z" fill="#7b818d" ecmeta_series_index="4" ecmeta_data_index="1" ecmeta_ssr_type="chart" class="zr4-cls-31"></path>
<path d="M249.4 276l22 0l0 0l-22 0Z" fill="#7b818d" ecmeta_series_index="4" ecmeta_data_index="2" ecmeta_ssr_type="chart" class="zr4-cls-31"></path>
<path d="M322.5 267.9l22 0l0 -8.1l-22 0Z" fill="#7b818d" ecmeta_series_index="4" ecmeta_data_index="3" ecmeta_ssr_type="chart" class="zr4-cls-31"></path>
<path d="M395.7 276l22 0l0 0l-22 0Z" fill="#7b818d" ecmeta_series_index="4" ecmeta_data_index="4" ecmeta_ssr_type="chart" class="zr4-cls-31"></path>
<path d="M468.9 167.1l22 0l0 -28.2l-22 0Z" fill="#7b818d" ecmeta_series_index="4" ecmeta_data_index="5" ecmeta_ssr_type="chart" class="zr4-cls-31"></path>
<path d="M542.1 114.6l22 0l0 -48.4l-22 0Z" fill="#7b818d" ecmeta_series_index="4" ecmeta_data_index="6" ecmeta_ssr_type="chart" class="zr4-cls-31"></path>
<path d="M615.2 102.5l22 0l0 -36.3l-22 0Z" fill="#7b818d" ecmeta_series_index="4" ecmeta_data_index="7" ecmeta_ssr_type="chart" class="zr4-cls-31"></path>
<path d="M688.4 239.7l22 0l0 -20.2l-22 0Z" fill="#7b818d" ecmeta_series_index="4" ecmeta_data_index="8" ecmeta_ssr_type="chart" class="zr4-cls-31"></path>
<path d="M-5 -5l380.6 0l0 21l-380.6 0Z" transform="translate(5 5)" fill="rgb(0,0,0)" fill-opacity="0" stroke="#b7b9be" stroke-width="0" class="zr4-cls-26"></path>
<path d="M2 0L12 0A2 2 0 0 1 14 2L14 6A2 2 0 0 1 12 8L2 8A2 2 0 0 1 0 6L0 2A2 2 0 0 1 2 0" transform="translate(5 6.5)" fill="#a4451b" ecmeta_series_index="0" ecmeta_data_index="0" ecmeta_ssr_type="legend" ecmeta_silent="true" class="zr4-cls-26"></path>
<text dominant-baseline="central" text-anchor="start" style="font-size:11px;font-family:Inter, Helvetica Neue, Arial, sans-serif;" x="19" y="4" transform="translate(5 6.5)" fill="#4d525c">backend</text>
<path d="M0 -1.5l60.8 0l0 11l-60.8 0Z" transform="translate(5 6.5)" fill="none" pointer-events="visible" ecmeta_series_index="0" ecmeta_data_index="0" ecmeta_ssr_type="legend" class="zr4-cls-32"></path>
<path d="M2 0L12 0A2 2 0 0 1 14 2L14 6A2 2 0 0 1 12 8L2 8A2 2 0 0 1 0 6L0 2A2 2 0 0 1 2 0" transform="translate(83.8 6.5)" fill="#3d6b4f" ecmeta_series_index="1" ecmeta_data_index="1" ecmeta_ssr_type="legend" ecmeta_silent="true" class="zr4-cls-26"></path>
<text dominant-baseline="central" text-anchor="start" style="font-size:11px;font-family:Inter, Helvetica Neue, Arial, sans-serif;" x="19" y="4" transform="translate(83.8 6.5)" fill="#4d525c">console</text>
<path d="M0 -1.5l57.1 0l0 11l-57.1 0Z" transform="translate(83.8 6.5)" fill="none" pointer-events="visible" ecmeta_series_index="1" ecmeta_data_index="1" ecmeta_ssr_type="legend" class="zr4-cls-32"></path>
<path d="M2 0L12 0A2 2 0 0 1 14 2L14 6A2 2 0 0 1 12 8L2 8A2 2 0 0 1 0 6L0 2A2 2 0 0 1 2 0" transform="translate(158.86 6.5)" fill="#b96b3f" ecmeta_series_index="2" ecmeta_data_index="2" ecmeta_ssr_type="legend" ecmeta_silent="true" class="zr4-cls-26"></path>
<text dominant-baseline="central" text-anchor="start" style="font-size:11px;font-family:Inter, Helvetica Neue, Arial, sans-serif;" x="19" y="4" transform="translate(158.86 6.5)" fill="#4d525c">cli</text>
<path d="M0 -1.5l29.3 0l0 11l-29.3 0Z" transform="translate(158.86 6.5)" fill="none" pointer-events="visible" ecmeta_series_index="2" ecmeta_data_index="2" ecmeta_ssr_type="legend" class="zr4-cls-32"></path>
<path d="M2 0L12 0A2 2 0 0 1 14 2L14 6A2 2 0 0 1 12 8L2 8A2 2 0 0 1 0 6L0 2A2 2 0 0 1 2 0" transform="translate(206.2 6.5)" fill="#4d525c" ecmeta_series_index="3" ecmeta_data_index="3" ecmeta_ssr_type="legend" ecmeta_silent="true" class="zr4-cls-26"></path>
<text dominant-baseline="central" text-anchor="start" style="font-size:11px;font-family:Inter, Helvetica Neue, Arial, sans-serif;" xml:space="preserve" x="19" y="4" transform="translate(206.2 6.5)" fill="#4d525c">landing + docs</text>
<path d="M0 -1.5l90.5 0l0 11l-90.5 0Z" transform="translate(206.2 6.5)" fill="none" pointer-events="visible" ecmeta_series_index="3" ecmeta_data_index="3" ecmeta_ssr_type="legend" class="zr4-cls-32"></path>
<path d="M2 0L12 0A2 2 0 0 1 14 2L14 6A2 2 0 0 1 12 8L2 8A2 2 0 0 1 0 6L0 2A2 2 0 0 1 2 0" transform="translate(314.7 6.5)" fill="#7b818d" ecmeta_series_index="4" ecmeta_data_index="4" ecmeta_ssr_type="legend" ecmeta_silent="true" class="zr4-cls-26"></path>
<text dominant-baseline="central" text-anchor="start" style="font-size:11px;font-family:Inter, Helvetica Neue, Arial, sans-serif;" xml:space="preserve" x="19" y="4" transform="translate(314.7 6.5)" fill="#4d525c">infra + ci</text>
<path d="M0 -1.5l60.9 0l0 11l-60.9 0Z" transform="translate(314.7 6.5)" fill="none" pointer-events="visible" ecmeta_series_index="4" ecmeta_data_index="4" ecmeta_ssr_type="legend" class="zr4-cls-32"></path>
<style ><![CDATA[
.zr4-cls-26:hover {
pointer-events:none;
}
.zr4-cls-27:hover {
cursor:pointer;
fill:rgba(180,75,29,1);
}
.zr4-cls-28:hover {
cursor:pointer;
fill:rgba(67,117,86,1);
}
.zr4-cls-29:hover {
cursor:pointer;
fill:rgba(203,117,69,1);
}
.zr4-cls-30:hover {
cursor:pointer;
fill:rgba(84,90,101,1);
}
.zr4-cls-31:hover {
cursor:pointer;
fill:rgba(135,141,155,1);
}
.zr4-cls-32:hover {
cursor:pointer;
fill:rgba(0,0,0,0);
}

]]>

</style>
</svg>